<svg version="1.1" id="Layer_1" xmlns="http://www.w3.org/2000/svg" xmlns:xlink="http://www.w3.org/1999/xlink" x="0px" y="0px"
	 width="100%" viewBox="0 0 500 500" enable-background="new 0 0 500 500" xml:space="preserve">
<path fill="#000000" opacity="1.000000" stroke="none" 
	d="
M271.000000,501.000000 
	C180.666687,501.000000 90.833374,501.000000 1.000048,501.000000 
	C1.000032,334.333405 1.000032,167.666794 1.000016,1.000138 
	C167.666565,1.000092 334.333130,1.000092 500.999756,1.000046 
	C500.999847,167.666519 500.999847,334.333038 500.999939,500.999786 
	C424.500000,501.000000 348.000000,501.000000 271.000000,501.000000 
M243.341583,233.483398 
	C252.002701,230.484558 252.003052,230.484558 252.000366,221.000748 
	C251.999954,219.501022 252.019791,218.000748 251.985992,216.501709 
	C251.929749,214.007202 252.282547,211.300751 248.539154,211.046127 
	C245.309784,210.826477 243.252914,211.393936 242.793839,215.357758 
	C242.345642,219.227753 237.003525,221.855515 234.253204,219.596695 
	C230.026550,216.125351 227.229950,217.525574 224.341187,221.109924 
	C223.093384,222.658188 221.642593,224.081985 220.109695,225.351883 
	C217.971680,227.123077 218.267899,228.846985 219.543640,230.986893 
	C222.412186,235.798462 220.862335,239.781448 215.349594,241.271622 
	C212.114182,242.146194 210.536530,243.613327 210.955719,247.124344 
	C211.230331,249.424683 211.097351,251.787888 210.991364,254.115860 
	C210.858826,257.027557 211.818787,258.506989 214.972092,259.267151 
	C220.235931,260.536011 221.887360,264.933319 218.754440,269.292175 
	C216.686172,272.169769 217.140198,274.006775 219.535431,276.063141 
	C220.795929,277.145294 222.208832,278.228149 223.021362,279.620789 
	C225.560211,283.972229 228.572464,284.318420 232.745651,281.784210 
	C235.798111,279.930603 240.704987,282.304260 240.869644,285.736725 
	C241.110458,290.756714 243.994904,291.150696 247.930374,291.015961 
	C252.695190,290.852814 251.907806,287.497589 251.982208,284.595551 
	C252.050522,281.931122 251.845001,279.252808 252.032455,276.599884 
	C252.314163,272.612946 251.461975,270.436310 246.724625,269.564789 
	C237.948532,267.950317 232.368179,261.247437 232.017822,253.579987 
	C231.543335,243.196381 234.997208,236.960403 243.047791,234.675323 
	C241.635498,238.363953 242.011337,241.176239 246.544266,242.103943 
	C249.407349,242.689911 252.303284,243.226379 255.064148,244.146225 
	C256.169434,244.514496 257.832062,246.042175 257.688782,246.708160 
	C257.428802,247.916519 255.963257,249.822052 255.075974,249.781799 
	C249.778931,249.541534 244.179855,251.707657 239.195480,247.884552 
	C238.437088,247.302856 235.779388,247.936081 235.114197,248.833298 
	C234.384308,249.817795 234.381119,252.174149 235.108475,253.160217 
	C235.771530,254.059082 238.415222,254.698074 239.190018,254.119034 
	C244.350830,250.262039 250.104355,252.546173 255.564728,252.234985 
	C256.261414,252.195267 257.419250,253.780457 257.654297,254.779694 
	C257.775543,255.295151 256.459198,256.519623 255.581085,256.834534 
	C251.939224,258.140503 248.117584,258.992462 244.582703,260.521515 
	C243.482040,260.997620 242.511826,263.101501 242.555130,264.425079 
	C242.583542,265.292542 244.548691,266.772400 245.628754,266.756775 
	C246.948303,266.737671 248.634506,265.721436 249.444977,264.612335 
	C250.185577,263.598877 249.969727,261.886505 250.160904,260.581055 
	C257.725586,259.381958 257.969635,259.568756 257.993164,266.559021 
	C258.016144,273.388428 258.048828,280.218109 258.002289,287.047180 
	C257.984650,289.639648 259.324646,292.230865 261.584473,290.653748 
	C266.441681,287.263916 271.947998,286.018677 277.266205,284.054077 
	C278.111725,283.741699 279.219604,282.732666 279.293549,281.958527 
	C279.947937,275.105621 285.169128,271.348114 288.975891,266.461243 
	C293.585327,260.543884 290.527100,254.581818 286.466705,249.263763 
	C290.345917,245.594040 292.103363,241.262726 290.567535,236.448349 
	C287.797028,227.763626 279.039673,224.117264 273.797913,217.464111 
	C273.710358,217.352997 273.495758,217.294678 273.339172,217.292191 
	C270.039185,217.239563 267.502747,216.208969 265.375000,213.292175 
	C264.380798,211.929291 261.537720,211.915146 259.532593,211.289703 
	C259.022278,213.078827 258.116089,214.858063 258.071014,216.658829 
	C257.887695,223.983643 258.108521,231.320862 257.806183,238.638031 
	C257.758789,239.784836 255.782410,241.741318 254.688782,241.747711 
	C253.035309,241.757385 249.898682,240.275436 249.946762,239.612686 
	C250.366745,233.824249 246.515976,234.107056 243.341583,233.483398 
z"/>
<path fill="#474242" opacity="1.000000" stroke="none" 
	d="
M242.777466,234.027298 
	C246.515976,234.107056 250.366745,233.824249 249.946762,239.612686 
	C249.898682,240.275436 253.035309,241.757385 254.688782,241.747711 
	C255.782410,241.741318 257.758789,239.784836 257.806183,238.638031 
	C258.108521,231.320862 257.887695,223.983643 258.071014,216.658829 
	C258.116089,214.858063 259.022278,213.078827 259.532593,211.289703 
	C261.537720,211.915146 264.380798,211.929291 265.375000,213.292175 
	C267.502747,216.208969 270.039185,217.239563 273.339172,217.292191 
	C273.495758,217.294678 273.710358,217.352997 273.797913,217.464111 
	C279.039673,224.117264 287.797028,227.763626 290.567535,236.448349 
	C292.103363,241.262726 290.345917,245.594040 286.466705,249.263763 
	C290.527100,254.581818 293.585327,260.543884 288.975891,266.461243 
	C285.169128,271.348114 279.947937,275.105621 279.293549,281.958527 
	C279.219604,282.732666 278.111725,283.741699 277.266205,284.054077 
	C271.947998,286.018677 266.441681,287.263916 261.584473,290.653748 
	C259.324646,292.230865 257.984650,289.639648 258.002289,287.047180 
	C258.048828,280.218109 258.016144,273.388428 257.993164,266.559021 
	C257.969635,259.568756 257.725586,259.381958 250.160904,260.581055 
	C249.969727,261.886505 250.185577,263.598877 249.444977,264.612335 
	C248.634506,265.721436 246.948303,266.737671 245.628754,266.756775 
	C244.548691,266.772400 242.583542,265.292542 242.555130,264.425079 
	C242.511826,263.101501 243.482040,260.997620 244.582703,260.521515 
	C248.117584,258.992462 251.939224,258.140503 255.581085,256.834534 
	C256.459198,256.519623 257.775543,255.295151 257.654297,254.779694 
	C257.419250,253.780457 256.261414,252.195267 255.564728,252.234985 
	C250.104355,252.546173 244.350830,250.262039 239.190018,254.119034 
	C238.415222,254.698074 235.771530,254.059082 235.108475,253.160217 
	C234.381119,252.174149 234.384308,249.817795 235.114197,248.833298 
	C235.779388,247.936081 238.437088,247.302856 239.195480,247.884552 
	C244.179855,251.707657 249.778931,249.541534 255.075974,249.781799 
	C255.963257,249.822052 257.428802,247.916519 257.688782,246.708160 
	C257.832062,246.042175 256.169434,244.514496 255.064148,244.146225 
	C252.303284,243.226379 249.407349,242.689911 246.544266,242.103943 
	C242.011337,241.176239 241.635498,238.363953 242.945587,234.333160 
	C242.843384,233.991013 242.777466,234.027298 242.777466,234.027298 
M264.706360,218.566269 
	C264.036591,217.146896 263.366821,215.727539 262.697021,214.308167 
	C262.318695,214.528473 261.940369,214.748779 261.562042,214.969086 
	C261.562042,239.091705 261.562042,263.214325 261.562042,287.336945 
	C262.108307,287.456573 262.654572,287.576172 263.200836,287.695770 
	C263.886108,285.664581 264.571381,283.633392 265.392700,281.198914 
	C269.860199,283.603210 275.018677,285.218903 277.786896,278.816559 
	C278.628601,276.869873 277.102081,273.899200 276.628082,271.215637 
	C281.301727,270.846405 286.484314,268.841858 287.781403,262.534149 
	C289.473022,254.307785 284.161682,250.343658 277.141357,247.720505 
	C278.507202,247.279663 279.815918,246.771912 280.686768,247.185684 
	C284.707428,249.096054 286.688629,246.206406 287.384613,243.557220 
	C288.133850,240.705200 287.969818,237.164902 286.943176,234.391739 
	C285.042358,229.257019 282.283997,228.835876 278.098114,232.154190 
	C277.790955,232.397690 277.242126,232.336304 276.607635,232.453110 
	C276.639374,231.804291 276.499115,231.250031 276.708649,230.913681 
	C278.944824,227.324051 277.723816,223.970642 275.363251,221.309616 
	C273.049377,218.701202 269.891266,218.680176 266.742340,220.480515 
	C266.354767,220.702103 265.210205,219.599564 264.706360,218.566269 
z"/>
<path fill="#474242" opacity="1.000000" stroke="none" 
	d="
M242.870071,233.964508 
	C234.997208,236.960403 231.543335,243.196381 232.017822,253.579987 
	C232.368179,261.247437 237.948532,267.950317 246.724625,269.564789 
	C251.461975,270.436310 252.314163,272.612946 252.032455,276.599884 
	C251.845001,279.252808 252.050522,281.931122 251.982208,284.595551 
	C251.907806,287.497589 252.695190,290.852814 247.930374,291.015961 
	C243.994904,291.150696 241.110458,290.756714 240.869644,285.736725 
	C240.704987,282.304260 235.798111,279.930603 232.745651,281.784210 
	C228.572464,284.318420 225.560211,283.972229 223.021362,279.620789 
	C222.208832,278.228149 220.795929,277.145294 219.535431,276.063141 
	C217.140198,274.006775 216.686172,272.169769 218.754440,269.292175 
	C221.887360,264.933319 220.235931,260.536011 214.972092,259.267151 
	C211.818787,258.506989 210.858826,257.027557 210.991364,254.115860 
	C211.097351,251.787888 211.230331,249.424683 210.955719,247.124344 
	C210.536530,243.613327 212.114182,242.146194 215.349594,241.271622 
	C220.862335,239.781448 222.412186,235.798462 219.543640,230.986893 
	C218.267899,228.846985 217.971680,227.123077 220.109695,225.351883 
	C221.642593,224.081985 223.093384,222.658188 224.341187,221.109924 
	C227.229950,217.525574 230.026550,216.125351 234.253204,219.596695 
	C237.003525,221.855515 242.345642,219.227753 242.793839,215.357758 
	C243.252914,211.393936 245.309784,210.826477 248.539154,211.046127 
	C252.282547,211.300751 251.929749,214.007202 251.985992,216.501709 
	C252.019791,218.000748 251.999954,219.501022 252.000366,221.000748 
	C252.003052,230.484558 252.002701,230.484558 243.059525,233.755341 
	C242.777466,234.027298 242.843384,233.991013 242.870071,233.964508 
M228.394760,221.212326 
	C226.612259,222.963043 224.641678,224.568344 223.127579,226.526596 
	C222.384766,227.487305 221.895203,229.336121 222.306641,230.384338 
	C224.929108,237.065292 223.258133,241.007477 216.459625,244.074005 
	C215.406250,244.549103 214.403305,246.002350 214.143127,247.173431 
	C213.717438,249.089569 214.265793,251.234802 213.777161,253.121201 
	C213.068466,255.857101 214.254074,256.322296 216.523712,257.160126 
	C218.525803,257.899200 220.433914,259.736145 221.654236,261.572815 
	C224.139938,265.314026 223.410416,269.036804 219.917206,272.183868 
	C221.430710,273.806824 222.957886,274.968597 223.854355,276.499664 
	C226.080688,280.301849 228.409073,281.991608 232.435059,278.537933 
	C233.279251,277.813751 235.374603,278.104553 236.726212,278.499664 
	C240.590286,279.629211 243.341614,281.878479 244.048248,286.244171 
	C244.206848,287.223938 245.864380,287.961060 246.831863,288.809906 
	C247.536011,287.871399 248.777771,286.970917 248.847366,285.987488 
	C249.093689,282.506927 249.184174,278.971161 248.805420,275.514191 
	C248.670746,274.285034 247.184753,272.431702 246.047882,272.204803 
	C235.456207,270.091003 229.523544,260.107147 229.038101,250.900909 
	C228.628830,243.138931 235.410980,231.894913 245.725494,229.957306 
	C246.749268,229.764984 248.444382,228.919296 248.471573,228.315750 
	C248.695236,223.350571 248.597900,218.370941 248.597900,213.395691 
	C248.062286,213.299820 247.526657,213.203964 246.991043,213.108109 
	C246.350586,214.296280 245.473785,215.416733 245.110458,216.684326 
	C243.513351,222.256454 237.477341,224.860703 232.552933,222.080658 
	C231.472397,221.470657 230.165573,221.261459 228.394760,221.212326 
z"/>
<path fill="#000000" opacity="1.000000" stroke="none" 
	d="
M264.561401,218.838440 
	C265.210205,219.599564 266.354767,220.702103 266.742340,220.480515 
	C269.891266,218.680176 273.049377,218.701202 275.363251,221.309616 
	C277.723816,223.970642 278.944824,227.324051 276.708649,230.913681 
	C276.499115,231.250031 276.639374,231.804291 276.607635,232.453110 
	C277.242126,232.336304 277.790955,232.397690 278.098114,232.154190 
	C282.283997,228.835876 285.042358,229.257019 286.943176,234.391739 
	C287.969818,237.164902 288.133850,240.705200 287.384613,243.557220 
	C286.688629,246.206406 284.707428,249.096054 280.686768,247.185684 
	C279.815918,246.771912 278.507202,247.279663 277.141357,247.720505 
	C284.161682,250.343658 289.473022,254.307785 287.781403,262.534149 
	C286.484314,268.841858 281.301727,270.846405 276.628082,271.215637 
	C277.102081,273.899200 278.628601,276.869873 277.786896,278.816559 
	C275.018677,285.218903 269.860199,283.603210 265.392700,281.198914 
	C264.571381,283.633392 263.886108,285.664581 263.200836,287.695770 
	C262.654572,287.576172 262.108307,287.456573 261.562042,287.336945 
	C261.562042,263.214325 261.562042,239.091705 261.562042,214.969086 
	C261.940369,214.748779 262.318695,214.528473 262.697021,214.308167 
	C263.366821,215.727539 264.036591,217.146896 264.561401,218.838440 
M267.115631,237.142365 
	C269.259460,240.603455 272.063690,241.960876 275.149658,240.687149 
	C273.057709,238.163742 269.613556,235.841858 269.438721,233.295502 
	C269.254822,230.617615 272.199005,227.724945 273.720886,225.024475 
	C268.179413,224.621674 265.040436,229.581329 267.115631,237.142365 
M267.173126,247.979706 
	C268.663818,247.397308 270.154541,246.814926 272.722351,245.811737 
	C267.195068,244.343567 264.112579,245.492813 262.616974,249.863052 
	C261.273590,253.788559 262.943878,256.603058 266.501160,257.839935 
	C266.501160,254.797943 266.501160,251.541794 267.173126,247.979706 
M272.290588,256.544281 
	C273.768890,259.366577 275.498352,261.626312 278.299438,260.577637 
	C276.757385,258.459595 275.274231,256.422424 273.791077,254.385239 
	C273.248596,254.894440 272.706116,255.403641 272.290588,256.544281 
z"/>
<path fill="#000000" opacity="1.000000" stroke="none" 
	d="
M228.678864,221.040009 
	C230.165573,221.261459 231.472397,221.470657 232.552933,222.080658 
	C237.477341,224.860703 243.513351,222.256454 245.110458,216.684326 
	C245.473785,215.416733 246.350586,214.296280 246.991043,213.108109 
	C247.526657,213.203964 248.062286,213.299820 248.597900,213.395691 
	C248.597900,218.370941 248.695236,223.350571 248.471573,228.315750 
	C248.444382,228.919296 246.749268,229.764984 245.725494,229.957306 
	C235.410980,231.894913 228.628830,243.138931 229.038101,250.900909 
	C229.523544,260.107147 235.456207,270.091003 246.047882,272.204803 
	C247.184753,272.431702 248.670746,274.285034 248.805420,275.514191 
	C249.184174,278.971161 249.093689,282.506927 248.847366,285.987488 
	C248.777771,286.970917 247.536011,287.871399 246.831863,288.809906 
	C245.864380,287.961060 244.206848,287.223938 244.048248,286.244171 
	C243.341614,281.878479 240.590286,279.629211 236.726212,278.499664 
	C235.374603,278.104553 233.279251,277.813751 232.435059,278.537933 
	C228.409073,281.991608 226.080688,280.301849 223.854355,276.499664 
	C222.957886,274.968597 221.430710,273.806824 219.917206,272.183868 
	C223.410416,269.036804 224.139938,265.314026 221.654236,261.572815 
	C220.433914,259.736145 218.525803,257.899200 216.523712,257.160126 
	C214.254074,256.322296 213.068466,255.857101 213.777161,253.121201 
	C214.265793,251.234802 213.717438,249.089569 214.143127,247.173431 
	C214.403305,246.002350 215.406250,244.549103 216.459625,244.074005 
	C223.258133,241.007477 224.929108,237.065292 222.306641,230.384338 
	C221.895203,229.336121 222.384766,227.487305 223.127579,226.526596 
	C224.641678,224.568344 226.612259,222.963043 228.678864,221.040009 
z"/>
<path fill="#474242" opacity="1.000000" stroke="none" 
	d="
M266.964630,236.777344 
	C265.040436,229.581329 268.179413,224.621674 273.720886,225.024475 
	C272.199005,227.724945 269.254822,230.617615 269.438721,233.295502 
	C269.613556,235.841858 273.057709,238.163742 275.149658,240.687149 
	C272.063690,241.960876 269.259460,240.603455 266.964630,236.777344 
z"/>
<path fill="#474343" opacity="1.000000" stroke="none" 
	d="
M266.837158,248.132690 
	C266.501160,251.541794 266.501160,254.797943 266.501160,257.839935 
	C262.943878,256.603058 261.273590,253.788559 262.616974,249.863052 
	C264.112579,245.492813 267.195068,244.343567 272.722351,245.811737 
	C270.154541,246.814926 268.663818,247.397308 266.837158,248.132690 
z"/>
<path fill="#474242" opacity="1.000000" stroke="none" 
	d="
M272.227112,256.228546 
	C272.706116,255.403641 273.248596,254.894440 273.791077,254.385254 
	C275.274231,256.422424 276.757385,258.459595 278.299438,260.577637 
	C275.498352,261.626312 273.768890,259.366577 272.227112,256.228546 
z"/>
</svg>